<?xml version="1.0" encoding="UTF-8"?><svg id="Layer_1" xmlns="http://www.w3.org/2000/svg" viewBox="0 0 44.07 44.08"><defs><style>.cls-1{fill:#fff;}</style></defs><path class="cls-1" d="M44.03,9.56c-.14-1.77-.44-2.96-1.06-4.22-.51-1.03-1.07-1.8-1.89-2.58-1.46-1.39-3.24-2.24-5.37-2.55-1.03-.15-1.23-.19-6.5-.2h-7.17C12.84,0,10.15,.02,9.63,.06c-1.89,.16-3.06,.45-4.34,1.09-.99,.49-1.76,1.06-2.53,1.85C1.36,4.46,.51,6.24,.2,8.36,.05,9.39,.01,9.6,0,14.87,0,16.62,0,18.93,0,22.03,0,31.22,.01,33.91,.06,34.43c.14,1.74,.41,2.86,.95,4.05,.74,3.12,3.54,5.44,6.88,5.44h.99c.44,.05,.92,.09,1.45,.11,.5,.02,5.26,.04,10.36,.04v-15.69h-4.43v-5.27h4.43v-3.11c0-1.84,.26-3.42,.77-4.74,.51-1.32,1.23-2.41,2.15-3.27,.92-.86,2-1.49,3.24-1.89,1.24-.41,2.59-.61,4.05-.61,.9,0,1.8,.08,2.69,.23,.89,.15,1.66,.34,2.31,.55v5.08c-.7-.18-1.43-.33-2.17-.45-.75-.12-1.45-.18-2.12-.18-.72,0-1.36,.09-1.92,.26-.56,.17-1.03,.46-1.42,.85-.39,.4-.68,.91-.88,1.54-.2,.63-.3,1.4-.3,2.3v3.43h7.27l-1.45,5.27h-5.82v15.69c3.48,0,6.21-.01,6.58-.03,.62-.03,1.14-.07,1.6-.12h.93c3.31,0,6.09-2.28,6.86-5.36,.56-1.19,.85-2.37,.98-4.06,.03-.38,.04-6.43,.04-12.48s-.01-12.09-.04-12.47Z"/></svg>