<?xml version="1.0" encoding="UTF-8"?><svg id="Layer_1" xmlns="http://www.w3.org/2000/svg" viewBox="0 0 44.07 44.08"><defs><style>.cls-1{fill:#fff;}</style></defs><path class="cls-1" d="M32.91,0H12.18C5.46,0,0,5.46,0,12.18v20.74c0,6.15,5.01,11.16,11.16,11.16h21.76c6.15,0,11.16-5.01,11.16-11.16V11.16c0-6.15-5.01-11.16-11.16-11.16Zm-10.88,33.57c-6.36,0-11.53-5.17-11.53-11.53s5.17-11.53,11.53-11.53,11.53,5.17,11.53,11.53-5.17,11.53-11.53,11.53Zm12.11-20.54c-1.54,0-2.79-1.25-2.79-2.79s1.25-2.79,2.79-2.79,2.79,1.25,2.79,2.79-1.25,2.79-2.79,2.79Z"/><circle class="cls-1" cx="22.04" cy="22.04" r="7.54" transform="translate(-2.84 3.27) rotate(-7.97)"/></svg>