<?xml version="1.0" encoding="UTF-8"?><svg id="Layer_1" xmlns="http://www.w3.org/2000/svg" viewBox="0 0 44.07 44.08"><defs><style>.cls-1{fill:#fff;}</style></defs><path class="cls-1" d="M32.91,0H12.18C5.46,0,0,5.48,0,12.19v20.74C0,39.07,5.01,44.09,11.16,44.09h21.75c6.16,0,11.16-5.02,11.16-11.16V11.17C44.07,5.02,39.07,0,32.91,0ZM16.26,32.76h-4.74v-14.42h4.74v14.42Zm-2.37-16.18c-1.45,0-2.62-1.18-2.62-2.63s1.17-2.62,2.62-2.62,2.63,1.17,2.63,2.62-1.18,2.63-2.63,2.63Zm18.91,16.18h-4.74v-7.62c0-2.65-1.22-3.12-2.19-3.12-.92,0-2.21,.47-2.34,2.29v8.45h-4.74v-14.42h4.74v1.64c.89-1.11,2.17-1.98,4-1.98,5.06,0,5.27,4.6,5.27,4.6v10.16Z"/></svg>