<?xml version="1.0" encoding="UTF-8"?><svg id="Layer_1" xmlns="http://www.w3.org/2000/svg" xmlns:xlink="http://www.w3.org/1999/xlink" viewBox="0 0 294.49 119.85"><defs><style>.cls-1{fill:url(#linear-gradient-2);}.cls-2{fill:#fff;}.cls-3{fill:url(#linear-gradient-6);}.cls-4{fill:url(#linear-gradient-5);}.cls-5{fill:url(#linear-gradient-7);}.cls-6{fill:url(#linear-gradient-9);}.cls-7{fill:url(#linear-gradient-3);}.cls-8{fill:url(#linear-gradient);}.cls-9{fill:url(#linear-gradient-4);}.cls-10{fill:url(#linear-gradient-8);}</style><linearGradient id="linear-gradient" x1="-8.8" y1="1085.14" x2="-8.8" y2="1084.05" gradientTransform="translate(487.58 64602.24) scale(52.43 -59.52)" gradientUnits="userSpaceOnUse"><stop offset="0" stop-color="#d39d5b"/><stop offset="1" stop-color="#ad7a51"/></linearGradient><linearGradient id="linear-gradient-2" x1="-16.75" y1="1085.34" x2="-16.75" y2="1084.21" gradientTransform="translate(564.9 62193.65) scale(29.59 -57.29)" xlink:href="#linear-gradient"/><linearGradient id="linear-gradient-3" x1="-14.36" y1="1086.98" x2="-14.36" y2="1085.49" gradientTransform="translate(591.6 47506.37) scale(34.04 -43.69)" xlink:href="#linear-gradient"/><linearGradient id="linear-gradient-4" x1="-12.56" y1="1086.82" x2="-12.56" y2="1085.38" gradientTransform="translate(624.41 48750.41) scale(38.41 -44.84)" xlink:href="#linear-gradient"/><linearGradient id="linear-gradient-5" x1="-24.5" y1="1084.72" x2="-24.5" y2="1083.71" gradientTransform="translate(684.99 70113.3) scale(20.77 -64.62)" xlink:href="#linear-gradient"/><linearGradient id="linear-gradient-6" x1="-43.37" y1="1102.53" x2="-43.37" y2="1096.76" gradientTransform="translate(722.32 12380.06) scale(12.03 -11.21)" xlink:href="#linear-gradient"/><linearGradient id="linear-gradient-7" x1="-24.5" y1="1087.02" x2="-24.5" y2="1085.53" gradientTransform="translate(709.71 47231.36) scale(20.77 -43.43)" xlink:href="#linear-gradient"/><linearGradient id="linear-gradient-8" x1="-11" y1="1085.33" x2="-11" y2="1084.26" gradientTransform="translate(710.35 65170.83) scale(43.21 -60.03)" xlink:href="#linear-gradient"/><linearGradient id="linear-gradient-9" x1="-14.02" y1="1086.82" x2="-14.02" y2="1085.38" gradientTransform="translate(764.91 48770.13) scale(34.79 -44.86)" xlink:href="#linear-gradient"/></defs><g id="DUT_Logo"><path id="Path_51" class="cls-8" d="M44.92,22.23c-1.37,0-2.88-.03-4.53-.08-1.65-.05-2.99-.11-4.04-.17v1.65c1.62,.01,3.22,.37,4.7,1.03,1.1,.58,1.93,1.57,2.31,2.76,.51,1.77,.73,3.6,.66,5.44v24.4c.05,3.71-.41,7.41-1.36,11-.74,2.95-2.39,5.6-4.7,7.58-2.22,1.84-5.37,2.76-9.44,2.76-2.27,.1-4.53-.4-6.55-1.44-1.65-.93-2.97-2.34-3.79-4.04-.91-1.94-1.5-4.01-1.73-6.14-.31-2.57-.47-5.16-.45-7.75V30.72c-.06-1.51,.11-3.03,.5-4.49,.3-.93,1.01-1.66,1.94-1.98,1.38-.42,2.81-.63,4.24-.62v-1.65c-1.32,.05-3.01,.11-5.07,.17-2.06,.06-4.14,.08-6.22,.08-2.31,0-4.46-.03-6.47-.08-2.01-.05-3.64-.11-4.91-.17v1.65c1.42-.01,2.84,.2,4.2,.62,.9,.32,1.59,1.06,1.85,1.98,.36,1.47,.51,2.98,.45,4.49v25.88c-.03,3.1,.13,6.2,.49,9.27,.25,2.23,.89,4.39,1.9,6.39,1,1.84,2.31,3.48,3.88,4.86,1.84,1.69,4.08,2.88,6.51,3.46,2.51,.61,5.08,.91,7.67,.91,3.3,.09,6.57-.63,9.52-2.1,2.5-1.25,4.6-3.18,6.06-5.56,1.34-2.31,2.24-4.86,2.64-7.5,.52-3.3,.77-6.63,.74-9.97v-23.82c-.05-1.76,.12-3.52,.49-5.23,.24-1.11,.93-2.08,1.9-2.68,1.28-.64,2.69-.98,4.12-.99v-1.65c-.88,.05-1.99,.11-3.34,.17-1.35,.06-2.73,.08-4.17,.08Z"/><path id="Path_52" class="cls-1" d="M79.58,76.38c-.98,1.09-2.37,1.72-3.83,1.73-1.33,.09-2.63-.43-3.54-1.4-.83-.93-1.24-2.53-1.24-4.78V39.54h11.38v-1.65h-11.38v-13.68c-1.32,.57-2.7,.97-4.12,1.2-1.58,.26-3.18,.41-4.78,.45v12.03h-7.58v1.65h7.58v27.69c-.06,2.35,.16,4.7,.66,7.01,.41,1.7,1.26,3.27,2.47,4.53,.95,.89,2.07,1.58,3.3,2.02,1.51,.51,3.1,.74,4.7,.7,3.24,0,5.7-1,7.38-3.01,1.74-2.14,2.94-4.67,3.5-7.38l-1.57-.58c-.51,2.15-1.52,4.15-2.93,5.85Z"/><path id="Path_53" class="cls-7" d="M116.25,37.65c-1.25-.69-2.66-1.03-4.08-.99-1.81-.02-3.58,.48-5.11,1.44-1.54,.96-2.88,2.21-3.96,3.67-1.07,1.42-1.95,2.98-2.64,4.62v-9.48c-1.47,.4-2.97,.69-4.49,.87-1.74,.2-3.48,.29-5.23,.29-1.65,0-3.35-.08-5.11-.25v1.73c2.31,0,3.88,.59,4.7,1.77,.95,1.66,1.38,3.57,1.24,5.48v25.88c0,2.31-.45,3.88-1.36,4.7-.91,.82-2.43,1.24-4.57,1.24v1.73c1.04-.05,2.55-.12,4.53-.21s3.96-.12,5.93-.12c2.58,0,5.04,.04,7.38,.12,2.34,.08,4.14,.15,5.4,.21v-1.73c-2.15,.12-4.28-.36-6.18-1.36-1.48-.91-2.23-2.71-2.23-5.4v-18.96c.02-1.51,.27-3.01,.74-4.45,.49-1.58,1.18-3.09,2.06-4.49,.83-1.35,1.93-2.53,3.21-3.46,1.2-.88,2.63-1.39,4.12-1.44,.71-.07,1.42,.13,1.98,.58-.85,.52-1.6,1.21-2.18,2.02-.65,.9-.98,1.98-.95,3.09-.06,1.29,.47,2.53,1.44,3.38,.97,.83,2.22,1.27,3.5,1.24,1.47,.06,2.88-.57,3.83-1.69,.97-1.14,1.48-2.59,1.44-4.08,.06-2.46-1.26-4.75-3.42-5.93h0Z"/><path id="Path_54" class="cls-9" d="M158.66,41.83c-1.7-3.3-12.97-5.18-16.65-5.18s-14.94,1.88-16.65,5.18-2.56,12-2.56,17.33,.85,9.63,2.56,12.9c1.48,3.04,3.87,5.55,6.84,7.17,6.19,3.02,13.43,3.02,19.62,0,2.97-1.63,5.36-4.13,6.84-7.17,1.7-3.27,2.56-7.57,2.56-12.9,0-5.33-.85-14.03-2.56-17.33Z"/><path id="Path_55" class="cls-4" d="M180.59,72.67V15.72c-1.49,.41-3,.7-4.53,.86-1.72,.2-3.46,.29-5.19,.29-1.65,0-3.35-.08-5.11-.25v1.73c2.31,0,3.88,.59,4.7,1.77,.94,1.66,1.38,3.57,1.24,5.48v47.06c0,2.31-.45,3.88-1.36,4.7-.91,.82-2.43,1.24-4.57,1.24v1.73c.99-.05,2.49-.12,4.49-.21,2.01-.08,4-.12,5.97-.12,1.98,0,3.94,.04,5.89,.12,1.95,.08,3.42,.15,4.41,.21v-1.73c-2.14,0-3.67-.41-4.57-1.24-.91-.82-1.36-2.39-1.36-4.7Z"/><path id="Path_56" class="cls-3" d="M200.37,28.25c1.58,.05,3.12-.53,4.29-1.61,2.21-2.07,2.32-5.54,.25-7.75-.08-.08-.16-.17-.25-.25-2.46-2.14-6.12-2.14-8.57,0-2.21,2.07-2.32,5.54-.25,7.74,.08,.09,.16,.17,.25,.25,1.16,1.08,2.7,1.65,4.29,1.61Z"/><path id="Path_57" class="cls-5" d="M205.31,72.67V36.9c-1.47,.4-2.97,.69-4.49,.87-1.74,.2-3.49,.29-5.23,.29-1.65,0-3.35-.08-5.11-.25v1.73c2.31,0,3.88,.59,4.7,1.77,.95,1.66,1.38,3.57,1.24,5.48v25.88c0,2.31-.45,3.88-1.36,4.7s-2.43,1.24-4.57,1.24v1.73c.99-.05,2.49-.12,4.49-.21,2.01-.08,4-.12,5.97-.12,2.03,0,4.02,.04,5.98,.12s3.39,.15,4.33,.21v-1.73c-2.14,0-3.67-.41-4.57-1.24s-1.36-2.39-1.36-4.7Z"/><path id="Path_58" class="cls-10" d="M251.71,35.83c-2.14,.04-4.2,.79-5.85,2.14-1.06,.8-2,1.76-2.77,2.84-1.17-1.22-2.58-2.18-4.16-2.8-4.98-1.81-10.44-1.81-15.41,0-2.21,.83-4.11,2.33-5.44,4.29-1.4,2.23-2.09,4.83-1.98,7.46-.11,2.62,.58,5.21,1.98,7.42,1.34,1.94,3.23,3.42,5.44,4.24,1.56,.6,3.18,.99,4.84,1.17-2.12,.99-4.07,2.34-5.75,3.98-1.52,1.47-2.41,3.48-2.47,5.6-.09,1.51,.46,3,1.53,4.08,1.12,1.01,2.51,1.69,4,1.94,1.76,.34,3.56,.51,5.36,.5h5.77c3.73,0,6.23,.59,7.5,1.77,1.24,1.13,1.93,2.73,1.89,4.41,.08,2.05-.68,4.04-2.1,5.52-1.51,1.49-3.39,2.56-5.44,3.09-2.29,.64-4.67,.96-7.05,.95-3.09,.14-6.16-.54-8.9-1.98-2.1-1.07-3.41-3.25-3.38-5.61-.01-1.27,.31-2.52,.95-3.63,.6-1.07,1.54-1.91,2.68-2.39l-.58-1.32c-2.39,.51-4.62,1.58-6.51,3.13-1.44,1.17-2.29,2.92-2.31,4.78-.03,1.87,.85,3.63,2.35,4.74,1.86,1.37,4,2.31,6.26,2.76,2.8,.63,5.66,.93,8.53,.91,4.3,.13,8.59-.58,12.61-2.1,2.97-1.12,5.58-3.03,7.54-5.52,1.61-2.09,2.5-4.65,2.52-7.29,.1-2.12-.58-4.2-1.9-5.85-1.34-1.53-3.08-2.66-5.03-3.26-2.27-.71-4.63-1.06-7.01-1.03h-9.81c-2.53,0-3.79-.88-3.79-2.64,.02-1.35,.71-2.61,1.85-3.34,1-.73,2.04-1.41,3.11-2.04,.13,0,.26,.02,.39,.02,2.65,.05,5.28-.41,7.75-1.36,2.17-.84,4.04-2.32,5.36-4.24,1.4-2.21,2.09-4.8,1.98-7.42,.11-2.63-.58-5.23-1.98-7.46-.03-.04-.07-.08-.1-.12,.55-.89,1.2-1.71,1.95-2.43,1.06-.92,2.26-1.67,3.55-2.22-.6,1.29-.9,2.69-.87,4.11,.01,1.08,.48,2.11,1.28,2.84,.68,.58,1.54,.9,2.43,.91,1.04-.02,2.05-.4,2.84-1.07,1-.93,1.5-2.27,1.36-3.63,.08-1.33-.42-2.64-1.36-3.59-1.01-.89-2.32-1.35-3.66-1.28Zm-16.07,22.99c-.92,1.58-2.63,2.53-4.45,2.47-1.79,.01-3.46-.93-4.37-2.47-1.1-1.65-1.65-4.67-1.65-9.07s.55-7.43,1.65-9.11c.9-1.56,2.57-2.52,4.37-2.51,1.83-.05,3.55,.92,4.45,2.51,1.04,1.68,1.56,4.71,1.56,9.11,0,4.39-.52,7.42-1.56,9.07Z"/><path id="Path_59" class="cls-6" d="M292.84,69.21c-.82,1.75-1.97,3.33-3.38,4.66-1.16,1.06-2.52,1.88-4,2.39-1.4,.47-2.86,.7-4.33,.7-2.05-.04-4.04-.72-5.69-1.94-2.02-1.48-3.59-3.49-4.53-5.81-1.24-3.03-1.83-6.29-1.73-9.56,0-.88,.03-1.77,.08-2.68,.04-.75,.09-1.44,.14-2.1h24.92c0-6.32-1.37-10.93-4.12-13.85-2.75-2.91-6.54-4.37-11.37-4.37-7.25-.22-13.9,4.03-16.73,10.71-1.69,3.96-2.51,8.23-2.39,12.53-.1,3.97,.69,7.91,2.31,11.54,1.4,3.09,3.7,5.69,6.59,7.46,3.05,1.78,6.53,2.68,10.06,2.6,2.6,.06,5.18-.52,7.5-1.69,2.06-1.06,3.87-2.57,5.27-4.41,1.3-1.67,2.33-3.53,3.05-5.52l-1.65-.67Zm-14.34-30.91c1.63-.04,3.17,.73,4.12,2.06,1.16,1.64,1.95,3.51,2.31,5.48,.51,2.45,.73,4.96,.66,7.46h-16.34c.43-5.1,1.46-8.87,3.11-11.25,1.73-2.5,3.78-3.75,6.14-3.75Z"/><g id="Group_13"><path id="Path_60" d="M66.65,87.85c-.12,1.27-.2,2.49-.25,3.68s-.07,2.1-.07,2.73c0,.69,.01,1.36,.04,1.99,.03,.63,.06,1.17,.09,1.63h-1.04c-.2-1.82-.6-3.61-1.2-5.33-.38-1.15-1.14-2.13-2.15-2.8-1.24-.64-2.63-.94-4.02-.86h-1.94v25.77c-.04,.92,.07,1.83,.34,2.71,.22,.6,.73,1.05,1.36,1.2,.97,.24,1.96,.37,2.96,.38v.9c-.84-.06-1.93-.1-3.25-.11-1.33-.01-2.68-.02-4.07-.02-1.45,0-2.81,0-4.09,.02-1.28,.02-2.31,.05-3.1,.11v-.9c.99-.02,1.98-.15,2.94-.38,.62-.16,1.12-.6,1.35-1.2,.28-.88,.4-1.79,.36-2.71v-25.77h-1.99c-1.38-.07-2.75,.23-3.98,.86-1.03,.65-1.8,1.64-2.17,2.8-.58,1.73-.98,3.52-1.18,5.33h-1.04c.07-.54,.1-1.08,.11-1.63,.02-.63,.02-1.29,.02-1.99,0-.63-.02-1.55-.07-2.73-.05-1.19-.13-2.42-.25-3.68,1.3,.03,2.71,.06,4.25,.09,1.54,.03,3.09,.04,4.66,.05h8.45c1.53,0,3.09-.02,4.66-.05,1.57-.03,2.99-.06,4.25-.08Z"/><path id="Path_61" d="M92.78,87.85c-.12,1.15-.2,2.25-.25,3.32-.05,1.07-.07,1.89-.07,2.46,0,.57,.02,1.12,.05,1.63,.03,.51,.06,.93,.09,1.27h-1.04c-.13-1.56-.46-3.09-.97-4.57-.34-1-1.03-1.84-1.94-2.37-1.12-.52-2.36-.76-3.59-.7h-3.12c-.74-.03-1.48,.06-2.19,.25-.48,.15-.86,.52-1.02,.99-.21,.76-.31,1.54-.27,2.33v22.78c-.03,.78,.06,1.56,.27,2.31,.15,.48,.53,.86,1.02,1.02,.71,.19,1.45,.28,2.19,.25h2.94c1.41,.06,2.81-.21,4.09-.81,1.06-.59,1.87-1.54,2.31-2.67,.62-1.63,1.03-3.33,1.2-5.06h1.04c-.09,.87-.13,2.02-.14,3.43,0,.6,.02,1.48,.07,2.62s.13,2.32,.25,3.53c-1.54-.06-3.27-.1-5.2-.11-1.93-.01-3.65-.02-5.15-.02h-2.67c-1.09,0-2.25,0-3.5,.02-1.25,.02-2.51,.03-3.8,.04-1.28,.02-2.51,.04-3.69,.07v-.9c.78-.02,1.55-.14,2.3-.36,.5-.17,.88-.58,1.02-1.09,.19-.8,.28-1.62,.25-2.44v-22.42c.04-.83-.06-1.66-.27-2.46-.16-.5-.54-.91-1.04-1.09-.73-.23-1.49-.35-2.26-.34v-.9c1.18,.03,2.4,.05,3.69,.07l3.8,.04c1.25,.02,2.42,.02,3.5,.02h2.67c1.39,0,2.96,0,4.72-.02,1.76-.02,3.34-.05,4.73-.11Zm-7.5,15.46v.9h-8.18v-.9h8.18Zm1.31-5.97c-.12,1.72-.17,3.03-.16,3.93,.01,.9,.02,1.73,.02,2.49,0,.75,.02,1.58,.05,2.49s.11,2.22,.23,3.93h-1.04c-.15-.97-.34-1.92-.59-2.87-.2-.85-.65-1.63-1.29-2.24-.82-.64-1.84-.94-2.87-.86v-.9c1.52,.13,2.96-.72,3.57-2.12,.3-.63,.52-1.29,.66-1.97,.13-.68,.26-1.3,.38-1.88h1.04Z"/><path id="Path_62" d="M111.09,87.67l11.03,28.39c.26,.88,.77,1.66,1.47,2.26,.45,.35,.99,.57,1.56,.63v.9c-.72-.06-1.58-.1-2.55-.11s-1.97-.02-2.96-.02c-1.27,0-2.44,0-3.53,.02-1.08,.02-1.96,.05-2.62,.11v-.9c1.54-.06,2.51-.32,2.92-.79,.41-.47,.31-1.47-.29-3.01l-8.14-21.97,.72-.81-7.5,19.62c-.47,1.08-.79,2.22-.97,3.39-.13,.72-.05,1.45,.23,2.12,.28,.53,.76,.92,1.33,1.09,.76,.23,1.55,.35,2.35,.36v.9c-.9-.06-1.81-.1-2.73-.11s-1.79-.02-2.6-.02c-.72,0-1.36,0-1.92,.02-.51,.01-1.01,.05-1.51,.11v-.9c.72-.2,1.38-.59,1.9-1.13,.81-.89,1.42-1.94,1.81-3.08l10.49-27.08h1.53Zm4.75,19.17v.9h-13.47l.45-.9h13.02Z"/><path id="Path_63" d="M149.83,87.85c-.12,1.27-.2,2.49-.25,3.68s-.07,2.1-.07,2.73c0,.69,.02,1.36,.05,1.99,.03,.63,.06,1.18,.09,1.63h-1.04c-.2-1.82-.6-3.61-1.2-5.33-.38-1.15-1.14-2.13-2.15-2.8-1.24-.64-2.63-.94-4.02-.86h-1.94v25.77c-.04,.92,.07,1.83,.34,2.71,.22,.6,.73,1.05,1.36,1.2,.97,.24,1.96,.37,2.96,.38v.9c-.84-.06-1.93-.1-3.26-.11s-2.68-.02-4.07-.02c-1.45,0-2.81,0-4.09,.02-1.28,.02-2.32,.05-3.1,.11v-.9c.99-.02,1.98-.15,2.94-.38,.62-.16,1.12-.6,1.36-1.2,.28-.88,.4-1.79,.36-2.71v-25.77h-1.99c-1.38-.07-2.75,.23-3.98,.86-1.03,.65-1.8,1.64-2.17,2.8-.58,1.73-.98,3.52-1.18,5.33h-1.04c.07-.54,.1-1.08,.11-1.63,.01-.63,.02-1.29,.02-1.99,0-.63-.02-1.55-.07-2.73s-.13-2.42-.25-3.68c1.3,.03,2.71,.06,4.25,.09,1.54,.03,3.09,.04,4.66,.05h8.45c1.54,0,3.09-.02,4.66-.05,1.57-.03,2.99-.06,4.26-.08Z"/><path id="Path_64" d="M175.96,87.85c-.12,1.15-.2,2.25-.25,3.32-.04,1.07-.07,1.89-.07,2.46s.01,1.12,.04,1.63c.03,.51,.06,.93,.09,1.27h-1.04c-.13-1.56-.46-3.09-.97-4.57-.34-1-1.03-1.84-1.94-2.37-1.12-.52-2.36-.76-3.59-.7h-3.12c-.74-.03-1.48,.06-2.19,.25-.48,.15-.86,.52-1.02,.99-.21,.76-.31,1.54-.27,2.33v22.78c-.03,.78,.06,1.56,.27,2.31,.15,.48,.53,.86,1.02,1.02,.71,.19,1.45,.28,2.19,.25h2.94c1.41,.06,2.81-.21,4.09-.81,1.06-.59,1.87-1.54,2.31-2.67,.62-1.63,1.03-3.33,1.2-5.06h1.04c-.09,.87-.14,2.02-.13,3.43,0,.6,.02,1.48,.07,2.62s.13,2.32,.25,3.53c-1.53-.06-3.27-.1-5.2-.11-1.93-.01-3.65-.02-5.15-.02h-2.67c-1.09,0-2.25,0-3.5,.02-1.25,.02-2.51,.03-3.8,.04-1.28,.02-2.51,.04-3.69,.07v-.9c.78-.02,1.56-.14,2.31-.36,.5-.17,.88-.58,1.02-1.09,.2-.8,.28-1.62,.25-2.44v-22.42c.04-.83-.06-1.66-.27-2.46-.16-.5-.54-.9-1.04-1.09-.73-.23-1.49-.35-2.26-.34v-.9c1.18,.03,2.4,.05,3.69,.07l3.8,.04c1.25,.02,2.42,.02,3.5,.02h2.67c1.39,0,2.96,0,4.72-.02s3.34-.05,4.72-.11Zm-7.5,15.46v.9h-8.18v-.9h8.18Zm1.31-5.97c-.12,1.72-.17,3.03-.16,3.93,.02,.9,.02,1.73,.02,2.49,0,.75,.02,1.58,.05,2.49s.11,2.22,.23,3.93h-1.04c-.15-.97-.34-1.92-.59-2.87-.2-.85-.65-1.63-1.29-2.24-.82-.64-1.84-.94-2.87-.86v-.9c1.52,.13,2.96-.73,3.57-2.12,.3-.63,.52-1.29,.66-1.97,.13-.68,.26-1.3,.39-1.88h1.04Z"/><path id="Path_65" d="M180.75,87.85c.69,.03,1.59,.06,2.69,.09,1.1,.03,2.19,.04,3.28,.05,1.45,0,2.83-.02,4.14-.05,1.31-.03,2.24-.05,2.78-.04,2.18-.06,4.35,.27,6.4,.99,1.52,.52,2.84,1.49,3.8,2.78,.83,1.2,1.27,2.63,1.24,4.09-.01,1.01-.21,2.01-.57,2.96-.42,1.1-1.09,2.1-1.97,2.89-1.1,.99-2.39,1.73-3.8,2.19-1.97,.63-4.03,.92-6.1,.86h-4.34v-.9h3.89c1.61,.1,3.21-.26,4.63-1.02,1.02-.62,1.79-1.58,2.17-2.71,.39-1.22,.58-2.49,.56-3.78,.12-1.97-.42-3.92-1.54-5.54-1.03-1.31-2.8-1.97-5.33-1.97-.92-.13-1.85,.15-2.55,.77-.51,.96-.72,2.04-.61,3.12v22.42c-.03,.82,.06,1.65,.27,2.44,.15,.51,.54,.91,1.04,1.09,.73,.22,1.49,.34,2.26,.36v.9c-.72-.06-1.64-.1-2.74-.11s-2.22-.02-3.37-.02c-1.27,0-2.45,0-3.55,.02-1.1,.02-2,.05-2.69,.11v-.9c.78-.02,1.56-.14,2.31-.36,.5-.17,.88-.58,1.02-1.09,.2-.8,.28-1.62,.25-2.44v-22.43c.03-.83-.05-1.66-.25-2.46-.15-.51-.54-.91-1.04-1.09-.74-.23-1.51-.34-2.28-.34v-.9Zm7.63,16.05c1.54,.06,2.77,.13,3.71,.2s1.72,.14,2.35,.2c.63,.06,1.22,.14,1.76,.23,1.79,.12,3.5,.75,4.95,1.81,1.15,1.11,1.91,2.58,2.15,4.16l1.13,4.61c.16,.96,.45,1.89,.88,2.76,.28,.52,.83,.84,1.42,.81,.44-.01,.86-.16,1.2-.43,.38-.32,.72-.67,1.02-1.06l.63,.5c-.59,.83-1.32,1.54-2.17,2.1-.93,.51-1.97,.75-3.03,.7-1.19,.03-2.36-.32-3.32-1.02-1.1-1.01-1.8-2.38-1.97-3.86l-.9-4.52c-.23-1.14-.53-2.27-.9-3.37-.27-.85-.74-1.62-1.38-2.24-.72-.59-1.63-.88-2.55-.81h-4.88l-.1-.76Z"/></g><g id="Group_14"><path id="Path_66" d="M92.37,0c5.09,0,8.88,1.23,11.35,3.7,2.48,2.47,3.72,6,3.72,10.59,.06,2.73-.56,5.44-1.82,7.86-1.2,2.23-3.03,4.05-5.27,5.22-2.59,1.31-5.46,1.94-8.36,1.86-.41,0-.97-.01-1.67-.04-.7-.03-1.42-.05-2.17-.06-.74-.01-1.42-.02-2.02-.02-1.05,0-2.07,0-3.08,.02-1,.01-1.82,.05-2.46,.1v-.83c.71-.02,1.42-.13,2.11-.33,.46-.15,.81-.52,.93-.99,.18-.73,.25-1.48,.23-2.23V4.38c.03-.76-.05-1.51-.23-2.25-.14-.47-.49-.84-.95-.99-.68-.21-1.38-.31-2.09-.31V0c.63,.03,1.45,.06,2.46,.1,1,.04,2,.05,2.99,.02,.99-.03,2.1-.05,3.32-.08s2.22-.04,2.99-.04Zm-.7,.74c-.89-.12-1.79,.13-2.48,.7-.48,.87-.68,1.86-.58,2.85V24.94c-.11,.99,.1,1.99,.6,2.85,.7,.57,1.61,.82,2.5,.7,2.28,.13,4.54-.43,6.48-1.63,1.6-1.17,2.75-2.85,3.26-4.77,.68-2.49,1-5.06,.95-7.64,.07-2.59-.28-5.18-1.03-7.66-.56-1.86-1.75-3.46-3.37-4.54-1.93-1.1-4.13-1.62-6.34-1.51h0Z"/><path id="Path_67" d="M131.92,0c-.11,1.05-.19,2.06-.23,3.03s-.06,1.73-.06,2.25c0,.52,.01,1.02,.04,1.49,.03,.47,.06,.85,.08,1.15h-.95c-.12-1.42-.42-2.82-.89-4.17-.31-.91-.94-1.68-1.78-2.17-1.03-.48-2.15-.7-3.28-.64h-2.85c-.67-.02-1.35,.05-2,.23-.44,.14-.78,.47-.93,.91-.2,.69-.28,1.41-.25,2.13V25.02c-.03,.71,.05,1.42,.25,2.11,.14,.44,.49,.79,.93,.93,.65,.18,1.33,.25,2,.23h2.68c1.29,.06,2.57-.2,3.74-.74,.96-.54,1.71-1.4,2.1-2.44,.57-1.49,.94-3.04,1.09-4.62h.95c-.08,.8-.12,1.85-.12,3.14,0,.55,.02,1.35,.06,2.39,.04,1.05,.12,2.12,.23,3.22-1.4-.06-2.98-.09-4.75-.1-1.76-.01-3.33-.02-4.71-.02h-2.44c-.99,0-2.06,0-3.2,.02l-3.47,.04c-1.17,.01-2.29,.04-3.36,.06v-.83c.71-.02,1.42-.13,2.11-.33,.46-.15,.81-.52,.93-.99,.18-.73,.25-1.48,.23-2.23V4.38c.03-.76-.05-1.52-.25-2.25-.15-.46-.5-.83-.95-.99-.67-.21-1.36-.32-2.06-.31V0c1.07,.03,2.2,.05,3.36,.06l3.47,.04c1.14,.01,2.21,.02,3.2,.02h2.44c1.27,0,2.7,0,4.31-.02,1.61-.01,3.05-.05,4.31-.1Zm-6.85,14.12v.83h-7.47v-.83h7.47Zm1.2-5.45c-.11,1.57-.16,2.77-.15,3.59,.01,.83,.02,1.58,.02,2.27,0,.69,.01,1.45,.04,2.27,.03,.82,.1,2.02,.2,3.59h-.95c-.13-.88-.31-1.76-.54-2.62-.19-.78-.6-1.49-1.18-2.04-.74-.58-1.68-.86-2.62-.79v-.83c1.39,.12,2.7-.66,3.26-1.94,.27-.57,.48-1.18,.6-1.8,.12-.62,.24-1.19,.35-1.71h.95Z"/><path id="Path_68" d="M159.83,0c-.11,1.16-.19,2.28-.23,3.36-.04,1.09-.06,1.92-.06,2.5,0,.63,.01,1.24,.04,1.82s.06,1.07,.08,1.49h-.95c-.18-1.66-.55-3.29-1.09-4.87-.35-1.05-1.04-1.95-1.96-2.56-1.13-.59-2.4-.86-3.67-.78h-1.78V24.49c-.04,.84,.07,1.67,.31,2.48,.2,.55,.67,.96,1.24,1.09,.88,.22,1.79,.33,2.7,.35v.83c-.77-.06-1.76-.09-2.97-.1-1.21-.01-2.45-.02-3.72-.02-1.32,0-2.57,0-3.74,.02-1.17,.01-2.11,.05-2.83,.1v-.83c.9-.02,1.8-.13,2.68-.35,.56-.14,1.03-.55,1.24-1.09,.26-.8,.37-1.64,.33-2.48V.95h-1.82c-1.26-.06-2.51,.21-3.63,.78-.94,.6-1.64,1.5-1.98,2.56-.53,1.58-.89,3.21-1.07,4.87h-.95c.06-.49,.09-.99,.1-1.49,.01-.58,.02-1.18,.02-1.82,0-.58-.02-1.41-.06-2.5s-.12-2.21-.23-3.36c1.18,.03,2.48,.06,3.88,.08,1.4,.03,2.82,.04,4.25,.04h7.72c1.4,0,2.82-.01,4.25-.04,1.44-.03,2.73-.05,3.89-.08Z"/></g><path id="Path_69" class="cls-2" d="M129.63,53.33c.19-2.57,2.36-4.55,4.94-4.49,4.6,0,4.92,3.51,4.92,3.51,0,0-2.36-.19-3.94-.19-2.02,.05-4.03,.45-5.92,1.18Z"/><path id="Path_70" class="cls-2" d="M154.39,53.33c-.19-2.57-2.36-4.55-4.93-4.49-4.6,0-4.93,3.51-4.93,3.51,0,0,2.36-.19,3.94-.19,2.02,.05,4.02,.45,5.92,1.18Z"/><path id="Path_71" class="cls-2" d="M142.01,62.54c-3.21,0-6.7,.63-8.69,1.89,0,4.05,2.61,9.5,8.69,9.5s8.69-5.45,8.69-9.5c-1.99-1.26-5.47-1.89-8.69-1.89Z"/></g></svg>