<?xml version="1.0" encoding="UTF-8"?><svg id="Layer_1" xmlns="http://www.w3.org/2000/svg" xmlns:xlink="http://www.w3.org/1999/xlink" viewBox="0 0 38.41 44.84"><defs><style>.cls-1{fill:url(#linear-gradient);}</style><linearGradient id="linear-gradient" x1="19.2" y1="62.51" x2="19.2" y2="-2.2" gradientUnits="userSpaceOnUse"><stop offset="0" stop-color="#d39d5b"/><stop offset="1" stop-color="#ad7a51"/></linearGradient></defs><g id="DUT_Logo"><path class="cls-1" d="M35.85,5.18C34.15,1.88,22.88,0,19.2,0S4.26,1.88,2.56,5.18C.85,8.48,0,17.18,0,22.5s.85,9.63,2.56,12.9c1.48,3.04,3.87,5.55,6.84,7.18,6.19,3.02,13.42,3.02,19.61,0,2.97-1.63,5.36-4.14,6.84-7.18,1.71-3.26,2.56-7.56,2.56-12.9s-.85-14.02-2.56-17.32ZM6.83,16.68c.18-2.57,2.35-4.55,4.93-4.49,4.6,0,4.93,3.51,4.93,3.51,0,0-2.36-.2-3.95-.2-2.02,.06-4.02,.45-5.91,1.18Zm12.37,20.59c-6.08,0-8.69-5.44-8.69-9.5,1.99-1.26,5.48-1.89,8.69-1.89s6.71,.63,8.69,1.89c0,4.05-2.61,9.5-8.69,9.5Zm6.47-21.77c-1.59,0-3.95,.2-3.95,.2,0,0,.33-3.51,4.93-3.51,2.58-.06,4.74,1.92,4.93,4.49-1.89-.73-3.89-1.12-5.91-1.18Z"/></g></svg>